# xmcd
#
# Track frame offsets:
#	150
#	14879
#	27072
#	40220
#	54401
#	65942
#	79585
#	90449
#	101694
#	114173
#	126473
#	138827
#	150004
#	163278
#	177299
#	190634
#	203216
#	213421
#	226439
#	238110
#	251285
#	263527
#	279056
#	290895
#	301346
#
# Disc length: 4166 seconds
# Revision: 1
# Processed by: cddbd v1.5.2PL0 Copyright (c) Steve Scherf et al.
# Submitted via: dBpowerAMP V12.0
#
DISCID=55104419
DTITLE=Various Artist - Let Me Tell You About The Blues - Detroit
DYEAR=1947
DGENRE=Blues
TTITLE0=Paul Williams - Thirty-Five-Thirty
TTITLE1=Wild Bill Moore - We're Gonna Rock
TTITLE2=T.J. Fowler - T.J. Boogie
TTITLE3=Paul Williams - The Hucklebuck
TTITLE4=T.J. Fowler - Red Hot Blues
TTITLE5=Detroit Count - Little Tillie Willie
TTITLE6=Emmit Slay - Looky Ploot
TTITLE7=Wild Bill Moore - Burnt Toast
TTITLE8=Kitty Steveson - It Ain't Right
TTITLE9=Emmit Slay - Beulah
TTITLE10=Little Miss Sharecropper - I Want To Rock
TTITLE11=Sonny Wilson - The Rainy Day Blues
TTITLE12=Maurice King and His Wolverines - I Feel So Good
TTITLE13=The Kool Cats - That's The Best I Can Do For You Blues
TTITLE14=Maurice King and His Wolverines - I Want A Lavender Cadillac
TTITLE15=Calvin Frazier - Got Nobody To Tell My Troubles To
TTITLE16=T.J. Fowler and Alberta Adams - Say Baby Say
TTITLE17=Harvey Hill Jr - She Fool Me
TTITLE18=Calvin Frazier - Little Baby Child
TTITLE19=Alberta Adams - Remember
TTITLE20=Joe Weaver and His Blue Notes - J.B. Boogie
TTITLE21=John Lee Hooker - I Do Like I Please
TTITLE22=Gip (Sandman) Roberts - No One Monkey Goin' To Run My Show
TTITLE23=Lena Hall - Five Long Years
TTITLE24=John Lee Hooker - No More Doggin'
EXTD=
EXTT0=
EXTT1=
EXTT2=
EXTT3=
EXTT4=
EXTT5=
EXTT6=
EXTT7=
EXTT8=
EXTT9=
EXTT10=
EXTT11=
EXTT12=
EXTT13=
EXTT14=
EXTT15=
EXTT16=
EXTT17=
EXTT18=
EXTT19=
EXTT20=
EXTT21=
EXTT22=
EXTT23=
EXTT24=
PLAYORDER=
